name analog
datacolumns 19
datarows 37
range 0.1625 0.1805
endheader
time	ground_force_vx	ground_force_vy	ground_force_vz	ground_force_px	ground_force_py	ground_force_pz	l_ground_force_vx	l_ground_force_vy	l_ground_force_vz	l_ground_force_px	l_ground_force_py	l_ground_force_pz	ground_torque_x	ground_torque_y	ground_torque_z	l_ground_torque_x	l_ground_torque_y	l_ground_torque_z
0.1625	-0.0	-0.0	-0.0	7.832658767700195	7.576024532318115	-290.0317077636719	-7.717758655548096	-17.840900421142578	-331.7637634277344	-0.0	-0.0	-0.0	-0.0	-0.0	-0.0	82872.5234375	1379.3958740234375	-6547.9541015625
0.163	-0.0	-0.0	-0.0	7.743319511413574	7.6655964851379395	-289.4650573730469	-7.753274440765381	-17.840980529785156	-330.925537109375	-0.0	-0.0	-0.0	-0.0	-0.0	-0.0	82541.7578125	1353.86572265625	-6536.2158203125
0.1635	-0.0	-0.0	-0.0	8.369157791137695	7.308692932128906	-289.74822998046875	-7.487067699432373	-17.240636825561523	-330.6441650390625	-0.0	-0.0	-0.0	-0.0	-0.0	-0.0	82270.953125	1322.3936767578125	-6370.0439453125
0.164	-0.0	-0.0	-0.0	7.761314392089844	7.950881481170654	-289.82037353515625	-7.292418479919434	-16.940685272216797	-330.0833435058594	-0.0	-0.0	-0.0	-0.0	-0.0	-0.0	82438.6328125	1204.9703369140625	-6286.138671875
0.1645	-0.0	-0.0	-0.0	7.7797346115112305	8.199996948242188	-289.68621826171875	-7.308210849761963	-15.897903442382812	-331.27813720703125	-0.0	-0.0	-0.0	-0.0	-0.0	-0.0	82659.4609375	1110.3870849609375	-6304.55322265625
0.165	-0.0	-0.0	-0.0	7.939735412597656	8.199996948242188	-291.2481689453125	-7.024883270263672	-15.84625244140625	-329.60577392578125	-0.0	-0.0	-0.0	-0.0	-0.0	-0.0	82509.8125	1126.531005859375	-6149.47802734375
0.1655	-0.0	-0.0	-0.0	7.651250839233398	8.129551887512207	-291.6611022949219	-6.616224765777588	-15.404894828796388	-330.3052978515625	-0.0	-0.0	-0.0	-0.0	-0.0	-0.0	82656.3515625	788.1549072265625	-5964.890625
0.166	-0.0	-0.0	-0.0	7.420811653137207	8.345608711242676	-292.4329833984375	-6.35216236114502	-15.686399459838867	-329.8012390136719	-0.0	-0.0	-0.0	-0.0	-0.0	-0.0	82673.09375	929.6357421875	-5942.0966796875
0.1665	-0.0	-0.0	-0.0	7.22315788269043	8.540427207946777	-294.19891357421875	-6.209754943847656	-15.263623237609863	-329.6625061035156	-0.0	-0.0	-0.0	-0.0	-0.0	-0.0	82531.6640625	926.7152709960938	-5809.8466796875
0.167	-0.0	-0.0	-0.0	6.563323497772217	8.88123893737793	-293.6312561035156	-6.228719234466553	-15.36797332763672	-330.583984375	-0.0	-0.0	-0.0	-0.0	-0.0	-0.0	82653.8671875	659.8695678710938	-5626.498046875
0.1675	-0.0	-0.0	-0.0	6.155525207519531	9.110555648803713	-295.7020568847656	-6.101930618286133	-14.481343269348145	-331.570556640625	-0.0	-0.0	-0.0	-0.0	-0.0	-0.0	82673.8984375	548.6851806640625	-5685.486328125
0.168	-0.0	-0.0	-0.0	5.690062046051025	9.517560005187988	-297.17803955078125	-6.0323333740234375	-14.61142921447754	-330.1148376464844	-0.0	-0.0	-0.0	-0.0	-0.0	-0.0	83130.71875	552.0676879882812	-5731.892578125
0.1685	-0.0	-0.0	-0.0	5.570156574249268	9.656608581542969	-296.9469299316406	-5.943622589111328	-14.504058837890623	-331.4975280761719	-0.0	-0.0	-0.0	-0.0	-0.0	-0.0	83094.0390625	696.3150024414062	-5691.81689453125
0.169	-0.0	-0.0	-0.0	5.268084526062012	10.53707790374756	-297.7902526855469	-5.476027965545654	-14.69583225250244	-331.3803100585937	-0.0	-0.0	-0.0	-0.0	-0.0	-0.0	83052.8046875	712.1248779296875	-5656.8642578125
0.1695	-0.0	-0.0	-0.0	4.7728118896484375	10.53720474243164	-297.2401733398437	-5.928770065307617	-14.81846046447754	-332.3338928222656	-0.0	-0.0	-0.0	-0.0	-0.0	-0.0	83397.3671875	874.7468872070312	-5530.458984375
0.17	-0.0	-0.0	-0.0	4.034450054168701	11.006917953491213	-298.2209167480469	-5.766201019287109	-15.259928703308104	-332.392333984375	-0.0	-0.0	-0.0	-0.0	-0.0	-0.0	83220.2890625	874.2426147460938	-5662.2880859375
0.1705	-0.0	-0.0	-0.0	3.1713130474090576	10.928531646728516	-298.2776794433594	-6.0323333740234375	-15.191329956054688	-332.9553527832031	-0.0	-0.0	-0.0	-0.0	-0.0	-0.0	83506.671875	998.807861328125	-5687.33154296875
0.171	-0.0	-0.0	-0.0	3.217623710632324	10.922554969787598	-299.3038635253906	-6.85916805267334	-14.92636489868164	-333.2256774902344	-0.0	-0.0	-0.0	-0.0	-0.0	-0.0	83400.6875	1172.836669921875	-5834.29443359375
0.1715	-0.0	-0.0	-0.0	2.998757123947144	10.997408866882324	-300.9647216796875	-7.30227518081665	-14.906213760375977	-333.9482727050781	-0.0	-0.0	-0.0	-0.0	-0.0	-0.0	83583.1953125	1054.72119140625	-5928.251953125
0.17200000000000001	-0.0	-0.0	-0.0	3.1566948890686035	11.202914237976074	-301.9143371582031	-7.315055847167969	-14.219791412353516	-332.3121337890625	-0.0	-0.0	-0.0	-0.0	-0.0	-0.0	83437.46875	1120.8531494140625	-5987.31640625
0.17250000000000001	-0.0	-0.0	-0.0	3.129474401473999	11.388025283813477	-302.59332275390625	-7.404021263122559	-13.934403419494627	-332.63458251953125	-0.0	-0.0	-0.0	-0.0	-0.0	-0.0	83315.2109375	1236.819091796875	-6048.86669921875
0.17300000000000001	-0.0	-0.0	-0.0	3.526740074157715	11.552797317504885	-304.8768005371094	-7.083508968353272	-13.906391143798828	-331.82794189453125	-0.0	-0.0	-0.0	-0.0	-0.0	-0.0	83145.6796875	1451.3157958984375	-5941.37744140625
0.17350000000000002	-0.0	-0.0	-0.0	3.4870238304138184	11.697031021118164	-306.373046875	-7.315873146057129	-14.24049472808838	-330.6466064453125	-0.0	-0.0	-0.0	-0.0	-0.0	-0.0	82843.1328125	1496.422119140625	-5957.3857421875
0.17400000000000002	-0.0	-0.0	-0.0	2.812517642974853	11.862504005432127	-305.3146057128906	-7.4517059326171875	-14.08978271484375	-329.38336181640625	-0.0	-0.0	-0.0	-0.0	-0.0	-0.0	82365.765625	1510.90478515625	-6042.01025390625
0.17450000000000002	-0.0	-0.0	-0.0	2.7188448905944824	12.29999542236328	-305.9041442871094	-7.806549072265625	-14.194461822509766	-328.0694580078125	-0.0	-0.0	-0.0	-0.0	-0.0	-0.0	82071.59375	1884.376220703125	-6269.61376953125
0.17500000000000002	-0.0	-0.0	-0.0	2.0982651710510254	11.697457313537598	-305.5853271484375	-7.899099349975586	-14.143943786621094	-327.18927001953125	-0.0	-0.0	-0.0	-0.0	-0.0	-0.0	81917.40625	1710.17431640625	-6031.0107421875
0.17550000000000002	-0.0	-0.0	-0.0	2.051841735839844	12.364567756652832	-306.0244140625	-7.421277046203613	-13.711134910583496	-327.0709533691406	-0.0	-0.0	-0.0	-0.0	-0.0	-0.0	81597.7421875	1672.6466064453125	-5937.4541015625
0.176	-0.0	-0.0	-0.0	2.309854030609131	12.401185989379885	-306.8656005859375	-7.286371231079102	-13.226834297180176	-326.5043334960937	-0.0	-0.0	-0.0	-0.0	-0.0	-0.0	81645.5625	1635.8494873046875	-5922.03076171875
0.1765	-0.0	-0.0	-0.0	2.1192355155944824	12.399053573608398	-306.9604187011719	-6.809092044830322	-13.004831314086914	-326.5419311523437	-0.0	-0.0	-0.0	-0.0	-0.0	-0.0	81640.4296875	1698.472900390625	-5837.49072265625
0.177	-0.0	-0.0	-0.0	1.6044670343399048	13.113805770874023	-307.48663330078125	-6.919441223144531	-13.456676483154297	-327.1949462890625	-0.0	-0.0	-0.0	-0.0	-0.0	-0.0	81509.046875	1707.9378662109375	-5763.16357421875
0.1775	-0.0	-0.0	-0.0	1.7392011880874634	13.05720043182373	-308.5464172363281	-6.986230850219727	-13.36982250213623	-325.2367553710937	-0.0	-0.0	-0.0	-0.0	-0.0	-0.0	81264.53125	1572.1868896484375	-5722.35791015625
0.178	-0.0	-0.0	-0.0	1.0145585536956787	13.525598526000977	-307.7958679199219	-7.041476249694824	-13.557147979736328	-324.9308166503906	-0.0	-0.0	-0.0	-0.0	-0.0	-0.0	81455.65625	1620.2371826171875	-5726.23388671875
0.1785	-0.0	-0.0	-0.0	0.6468713283538818	12.901530265808104	-308.3696594238281	-7.263253688812256	-13.43587875366211	-324.84185791015625	-0.0	-0.0	-0.0	-0.0	-0.0	-0.0	81193.15625	1665.9716796875	-5815.30078125
0.179	-0.0	-0.0	-0.0	0.5469725728034973	13.068856239318848	-309.7851867675781	-7.518737316131592	-13.546917915344238	-325.0174865722656	-0.0	-0.0	-0.0	-0.0	-0.0	-0.0	81347.8203125	1790.30419921875	-5822.9404296875
0.1795	-0.0	-0.0	-0.0	0.1104088276624679	13.346909523010254	-307.972900390625	-7.407970905303955	-12.938508987426758	-326.5452575683594	-0.0	-0.0	-0.0	-0.0	-0.0	-0.0	81373.3125	1621.67578125	-5719.08984375
0.18	-0.0	-0.0	-0.0	0.1348272114992141	13.692910194396973	-308.76959228515625	-7.152530670166016	-13.116660118103027	-326.6278076171875	-0.0	-0.0	-0.0	-0.0	-0.0	-0.0	81638.3125	1853.4947509765625	-5785.34130859375
0.1805	-0.0	-0.0	-0.0	0.2446808815002441	13.39249038696289	-309.51678466796875	-7.362995147705078	-12.806644439697266	-325.88824462890625	-0.0	-0.0	-0.0	-0.0	-0.0	-0.0	81588.359375	2082.31591796875	-5774.33935546875
